<svg xmlns="http://www.w3.org/2000/svg" version="1.1" width="115" height="50" style=""><rect id="backgroundrect" width="100%" height="100%" x="0" y="0" fill="none" stroke="none"/><g class="currentLayer" style=""><path fill="#fff" d="M6.231166736083534,95.80965760934687 l0,-1.9588428807258604 l1.7534107089042665,-0.6913563108444216 l0,-10.831248869895935 l-1.7534107089042665,-0.6913563108444216 l0,-1.9588428807258604 l7.130536882877349,-0.11522605180740357 l0,2.074068932533264 l-1.7534107089042665,0.6913563108444216 l0,10.831248869895935 l1.7534107089042665,0.6913563108444216 l0,1.9588428807258604 l-7.130536882877349,0 zM25.03965272835782,92.85987068307735 l0.8416371402740479,1.7514359874725343 c-1.1455616631507874,0.8296275730133057 -2.454774992465973,1.4288030424118043 -3.9743976068496703,1.4288030424118043 c-2.688563086986542,0 -3.460063798904419,-1.8436168289184571 -3.460063798904419,-4.493816020488739 l0,-5.300398383140564 l-2.1742292790412905,0 l0,-2.2353854050636293 l2.1742292790412905,-0.2995877346992494 l0,-3.1802390298843384 l3.506821417808533,-0.6222206797599795 l0,3.802459709644318 l3.273033323287964,0 l0,2.5349731397628785 l-3.273033323287964,0 l0,5.069946279525757 c0,1.4748934631347657 0.25716690397262587,2.074068932533264 1.2390769009590148,2.074068932533264 c0.6312278552055361,0 1.5430014238357546,-0.3687233657836915 1.846925946712494,-0.5300398383140567 zM35.68893422186425,88.08951213825083 l0,2.880651295185089 l-6.6629606938362125,0 l0,-2.880651295185089 l6.6629606938362125,0 zM50.803568320713545,84.74795663583613 l-0.5377126173973087,-2.2123401947021484 s-1.0988040442466736,-0.3687233657836915 -2.618426658630371,-0.3687233657836915 c-2.454774992465973,0 -3.8575035595893863,1.7975264081954958 -3.8575035595893863,5.646076538562775 c0,3.733324078559875 1.5196226143836975,5.300398383140564 3.9743976068496703,5.300398383140564 c2.337880945205688,0 4.441973795890808,-1.6131647253036498 4.441973795890808,-1.6131647253036498 l1.2858345198631287,2.074068932533264 s-2.454774992465973,2.5119279294013976 -6.125248076438904,2.5119279294013976 c-4.745898318767548,0 -7.481219024658204,-2.811515664100647 -7.481219024658204,-8.158004467964172 c0,-5.415624434947968 3.086002847671509,-8.641953885555267 7.87865878534317,-8.641953885555267 c2.828835943698883,0 5.447262602329254,1.0831248869895935 5.447262602329254,1.0831248869895935 l-0.11689404726028443,4.378589968681336 l-2.291123326301575,0 zM58.08630125312379,79.56278430450297 c0,-1.3135769906044008 0.9585311875343324,-2.074068932533264 2.010577612876892,-2.074068932533264 c1.215698091506958,0 1.9638199939727783,0.6222206797599795 1.9638199939727783,2.074068932533264 c0,1.3596674113273621 -1.005288806438446,2.097114142894745 -1.9638199939727783,2.097114142894745 c-1.2624557104110719,0 -2.010577612876892,-0.737446731567383 -2.010577612876892,-2.097114142894745 zM62.01394124106934,93.3899105213914 l1.636516661643982,0.5761302590370181 l0,1.8436168289184571 l-7.013642835617066,0 l0,-1.8436168289184571 l1.870304756164551,-0.5761302590370181 l0,-7.489693367481231 l-1.870304756164551,-0.5761302590370181 l0,-1.8436168289184571 l5.377126173973084,-0.11522605180740357 l0,10.02466650724411 zM75.09461891758968,92.85987068307735 l0.8416371402740479,1.7514359874725343 c-1.1455616631507874,0.8296275730133057 -2.454774992465973,1.4288030424118043 -3.9743976068496703,1.4288030424118043 c-2.688563086986542,0 -3.460063798904419,-1.8436168289184571 -3.460063798904419,-4.493816020488739 l0,-5.300398383140564 l-2.1742292790412905,0 l0,-2.2353854050636293 l2.1742292790412905,-0.2995877346992494 l0,-3.1802390298843384 l3.506821417808533,-0.6222206797599795 l0,3.802459709644318 l3.273033323287964,0 l0,2.5349731397628785 l-3.273033323287964,0 l0,5.069946279525757 c0,1.4748934631347657 0.25716690397262587,2.074068932533264 1.2390769009590148,2.074068932533264 c0.6312278552055361,0 1.5430014238357546,-0.3687233657836915 1.846925946712494,-0.5300398383140567 zM77.91199924465707,85.32408689487315 l0,-1.8436168289184571 l6.242142123699188,-0.11522605180740357 l0,1.9588428807258604 l-1.3092133293151855,0.23045210361480714 l2.0807140412330627,6.452658901214599 l1.9871988034248351,-6.383523270130158 l-1.3559709482192994,-0.2995877346992494 l0,-1.8436168289184571 l6.288899742603302,-0.11522605180740357 l0,1.9588428807258604 l-1.449486186027527,0.2995877346992494 l-3.436684989452362,9.448536248207093 c-1.1221828536987306,3.0419677677154544 -2.641805468082428,6.268297218322753 -6.359036170959472,6.268297218322753 c-0.7948795213699343,0 -2.267744516849518,-0.18436168289184576 -2.267744516849518,-0.18436168289184576 l0.32730333232879655,-2.4658375086784363 l1.5196226143836975,0 c1.870304756164551,0 2.7353207058906555,-1.9588428807258604 3.132760466575623,-2.8576060848236082 l-4.161428082466125,-10.139892559051514 z" id="svg_1" class="selected" transform="translate(6.15384578704834,-61.025638580322266) "/><path fill="#" d="" id="svg_2"/><rect fill="#2494e3" stroke-dashoffset="" fill-rule="nonzero" id="svg_3" x="53" y="30" width="0" height="0" style="color: rgb(0, 0, 0);"/></g></svg>